<mxfile host="app.diagrams.net" modified="2024-03-04T19:13:17.859Z" agent="Mozilla/5.0 (Windows NT 10.0; Win64; x64) AppleWebKit/537.36 (KHTML, like Gecko) Chrome/122.0.0.0 Safari/537.36" etag="5TZcVr1wHFh-T21MTYST" version="24.0.0" type="device">
  <diagram name="페이지-1" id="iVqutxWsDH5Cyjeh_DqX">
    <mxGraphModel dx="1816" dy="514" grid="1" gridSize="10" guides="1" tooltips="1" connect="1" arrows="1" fold="1" page="1" pageScale="1" pageWidth="827" pageHeight="1169" math="0" shadow="0">
      <root>
        <mxCell id="0" />
        <mxCell id="1" parent="0" />
        <mxCell id="xIuntBnlXC-8fYU1DI4w-14" style="edgeStyle=orthogonalEdgeStyle;rounded=0;orthogonalLoop=1;jettySize=auto;html=1;entryX=0.5;entryY=0;entryDx=0;entryDy=0;" edge="1" parent="1" source="xIuntBnlXC-8fYU1DI4w-2" target="xIuntBnlXC-8fYU1DI4w-13">
          <mxGeometry relative="1" as="geometry" />
        </mxCell>
        <mxCell id="xIuntBnlXC-8fYU1DI4w-2" value="인트로 (회귀)" style="text;html=1;align=center;verticalAlign=middle;whiteSpace=wrap;rounded=0;fillColor=default;strokeColor=default;" vertex="1" parent="1">
          <mxGeometry x="90" y="220" width="190" height="30" as="geometry" />
        </mxCell>
        <mxCell id="xIuntBnlXC-8fYU1DI4w-12" style="edgeStyle=orthogonalEdgeStyle;rounded=0;orthogonalLoop=1;jettySize=auto;html=1;" edge="1" parent="1" source="xIuntBnlXC-8fYU1DI4w-4">
          <mxGeometry relative="1" as="geometry">
            <mxPoint x="185" y="220" as="targetPoint" />
          </mxGeometry>
        </mxCell>
        <mxCell id="xIuntBnlXC-8fYU1DI4w-4" value="게임시작" style="text;html=1;align=center;verticalAlign=middle;whiteSpace=wrap;rounded=0;fillColor=default;strokeColor=default;" vertex="1" parent="1">
          <mxGeometry x="90" y="160" width="190" height="30" as="geometry" />
        </mxCell>
        <mxCell id="xIuntBnlXC-8fYU1DI4w-37" style="edgeStyle=orthogonalEdgeStyle;rounded=0;orthogonalLoop=1;jettySize=auto;html=1;entryX=0;entryY=0;entryDx=0;entryDy=0;" edge="1" parent="1" source="xIuntBnlXC-8fYU1DI4w-13" target="xIuntBnlXC-8fYU1DI4w-36">
          <mxGeometry relative="1" as="geometry" />
        </mxCell>
        <mxCell id="xIuntBnlXC-8fYU1DI4w-13" value="레벨업, 획득, 강화, 각성 등&lt;div&gt;준비&lt;/div&gt;" style="text;html=1;align=center;verticalAlign=middle;whiteSpace=wrap;rounded=0;fillColor=default;strokeColor=default;" vertex="1" parent="1">
          <mxGeometry x="90" y="270" width="190" height="30" as="geometry" />
        </mxCell>
        <mxCell id="xIuntBnlXC-8fYU1DI4w-31" value="회귀물 컨셉 : 반복미션" style="text;html=1;align=center;verticalAlign=middle;resizable=0;points=[];autosize=1;strokeColor=none;fillColor=none;" vertex="1" parent="1">
          <mxGeometry x="115" y="110" width="140" height="30" as="geometry" />
        </mxCell>
        <mxCell id="xIuntBnlXC-8fYU1DI4w-32" value="" style="endArrow=none;html=1;rounded=0;exitX=1;exitY=0.5;exitDx=0;exitDy=0;entryX=0;entryY=0.5;entryDx=0;entryDy=0;" edge="1" parent="1" source="xIuntBnlXC-8fYU1DI4w-13" target="xIuntBnlXC-8fYU1DI4w-9">
          <mxGeometry width="50" height="50" relative="1" as="geometry">
            <mxPoint x="410" y="340" as="sourcePoint" />
            <mxPoint x="460" y="290" as="targetPoint" />
          </mxGeometry>
        </mxCell>
        <mxCell id="xIuntBnlXC-8fYU1DI4w-34" value="" style="endArrow=none;html=1;rounded=0;exitX=1.003;exitY=0.627;exitDx=0;exitDy=0;entryX=0;entryY=0.5;entryDx=0;entryDy=0;exitPerimeter=0;" edge="1" parent="1" source="xIuntBnlXC-8fYU1DI4w-13" target="xIuntBnlXC-8fYU1DI4w-6">
          <mxGeometry width="50" height="50" relative="1" as="geometry">
            <mxPoint x="290" y="295" as="sourcePoint" />
            <mxPoint x="340" y="276" as="targetPoint" />
          </mxGeometry>
        </mxCell>
        <mxCell id="xIuntBnlXC-8fYU1DI4w-36" value="" style="whiteSpace=wrap;html=1;aspect=fixed;rotation=45;" vertex="1" parent="1">
          <mxGeometry x="131.5" y="360" width="107" height="107" as="geometry" />
        </mxCell>
        <mxCell id="xIuntBnlXC-8fYU1DI4w-38" style="edgeStyle=orthogonalEdgeStyle;rounded=0;orthogonalLoop=1;jettySize=auto;html=1;entryX=0;entryY=0.5;entryDx=0;entryDy=0;exitX=0;exitY=0.5;exitDx=0;exitDy=0;" edge="1" parent="1" source="xIuntBnlXC-8fYU1DI4w-16" target="xIuntBnlXC-8fYU1DI4w-13">
          <mxGeometry relative="1" as="geometry">
            <Array as="points">
              <mxPoint x="90" y="390" />
              <mxPoint x="70" y="390" />
              <mxPoint x="70" y="285" />
            </Array>
          </mxGeometry>
        </mxCell>
        <mxCell id="xIuntBnlXC-8fYU1DI4w-39" value="미션 성공" style="edgeLabel;html=1;align=center;verticalAlign=middle;resizable=0;points=[];" vertex="1" connectable="0" parent="xIuntBnlXC-8fYU1DI4w-38">
          <mxGeometry x="0.0118" y="-1" relative="1" as="geometry">
            <mxPoint x="-21" y="36" as="offset" />
          </mxGeometry>
        </mxCell>
        <mxCell id="xIuntBnlXC-8fYU1DI4w-40" style="edgeStyle=orthogonalEdgeStyle;rounded=0;orthogonalLoop=1;jettySize=auto;html=1;exitX=0;exitY=0.5;exitDx=0;exitDy=0;" edge="1" parent="1" source="xIuntBnlXC-8fYU1DI4w-16">
          <mxGeometry relative="1" as="geometry">
            <mxPoint x="90" y="235" as="targetPoint" />
            <Array as="points">
              <mxPoint x="-10" y="405" />
              <mxPoint x="-10" y="235" />
            </Array>
          </mxGeometry>
        </mxCell>
        <mxCell id="xIuntBnlXC-8fYU1DI4w-43" value="미션 실패" style="edgeLabel;html=1;align=center;verticalAlign=middle;resizable=0;points=[];" vertex="1" connectable="0" parent="xIuntBnlXC-8fYU1DI4w-40">
          <mxGeometry x="-0.3437" y="-4" relative="1" as="geometry">
            <mxPoint x="16" y="26" as="offset" />
          </mxGeometry>
        </mxCell>
        <mxCell id="xIuntBnlXC-8fYU1DI4w-45" value="처음부터" style="edgeLabel;html=1;align=center;verticalAlign=middle;resizable=0;points=[];" vertex="1" connectable="0" parent="xIuntBnlXC-8fYU1DI4w-40">
          <mxGeometry x="0.8032" y="-3" relative="1" as="geometry">
            <mxPoint x="-44" y="-8" as="offset" />
          </mxGeometry>
        </mxCell>
        <mxCell id="xIuntBnlXC-8fYU1DI4w-16" value="사건_N차 게이트 발생" style="text;html=1;align=center;verticalAlign=middle;whiteSpace=wrap;rounded=0;fillColor=default;strokeColor=default;" vertex="1" parent="1">
          <mxGeometry x="90" y="390" width="190" height="50" as="geometry" />
        </mxCell>
        <mxCell id="xIuntBnlXC-8fYU1DI4w-6" value="사냥터, 던전, 구매" style="text;html=1;align=center;verticalAlign=middle;whiteSpace=wrap;rounded=0;fillColor=default;strokeColor=default;" vertex="1" parent="1">
          <mxGeometry x="380" y="289" width="180" height="30" as="geometry" />
        </mxCell>
        <mxCell id="xIuntBnlXC-8fYU1DI4w-9" value="NPC 구출, 빌런 제압&lt;div&gt;&lt;span style=&quot;text-wrap: nowrap;&quot;&gt;이벤트&lt;/span&gt;&amp;nbsp;보상&lt;/div&gt;" style="text;html=1;align=center;verticalAlign=middle;whiteSpace=wrap;rounded=0;fillColor=default;strokeColor=default;" vertex="1" parent="1">
          <mxGeometry x="380" y="244" width="180" height="37" as="geometry" />
        </mxCell>
        <mxCell id="xIuntBnlXC-8fYU1DI4w-44" value="게이트 발생 조건 : 시간" style="text;html=1;align=center;verticalAlign=middle;resizable=0;points=[];autosize=1;strokeColor=none;fillColor=none;" vertex="1" parent="1">
          <mxGeometry x="290" y="380" width="150" height="30" as="geometry" />
        </mxCell>
        <mxCell id="xIuntBnlXC-8fYU1DI4w-46" value="미션 조건 : 섬멸, 마을 수호, 정찰, 차원 봉인" style="text;html=1;align=center;verticalAlign=middle;resizable=0;points=[];autosize=1;strokeColor=none;fillColor=none;" vertex="1" parent="1">
          <mxGeometry x="290" y="410" width="260" height="30" as="geometry" />
        </mxCell>
      </root>
    </mxGraphModel>
  </diagram>
</mxfile>
